<svg xmlns="http://www.w3.org/2000/svg" xmlns:xlink="http://www.w3.org/1999/xlink" version="1.1" id="Layer_1" x="0px" y="0px" viewBox="0 0 665.4 164.7" style="enable-background:new 0 0 665.4 164.7;" xml:space="preserve">
<style type="text/css">
	.st0{fill:#F5831F;}
	.st1{fill:#FFFFFF;}
</style>
<g id="Artwork_14_00000077314105936532840380000018019071811696100745_">
	<g>
		<polygon class="st0" points="44.3,26.4 44.3,44.8 33.9,44.8 33.9,26.4 26,26.4 26,52.7 52.2,52.7 52.2,26.4   "/>
		<polygon class="st0" points="26,60.7 25.9,86.9 52.2,86.9 52.2,79 33.8,79 33.8,68.6 52.2,68.6 52.2,60.7   "/>
		<g>
			<polygon class="st1" points="193.6,137.2 163.5,93.5 192.2,52.3 174.8,52.3 149.9,87.4 149.9,52.3 133.1,52.3 133.1,137.2      149.9,137.2 149.9,99.6 176,137.2    "/>
			<path class="st1" d="M106.7,114.7c0-3.3-1.2-5.9-3.5-7.8c-2.3-2-6.3-3.8-12.1-5.6C81,98.4,73.4,94.9,68.3,91     c-5.2-4-7.7-9.5-7.7-16.4s3-12.6,8.9-17S83,51,92.1,51c9.3,0,16.9,2.5,22.7,7.4s8.7,11,8.5,18.3l-0.1,0.3h-16.4     c0-3.9-1.3-7.1-3.9-9.5s-6.3-3.6-11-3.6c-4.5,0-8,1-10.5,3s-3.7,4.6-3.7,7.7c0,2.9,1.3,5.2,4,7.1c2.6,1.8,7.2,3.8,13.7,5.8     c9.3,2.6,16.4,6,21.2,10.3s7.2,9.9,7.2,16.8c0,7.2-2.9,13-8.6,17.1c-5.7,4.2-13.3,6.3-22.6,6.3c-9.2,0-17.3-2.4-24.1-7.1     c-6.9-4.7-10.2-11.4-10-20l0.1-0.3H75c0,5,1.5,8.7,4.6,11.1c3.1,2.3,7.4,3.5,12.9,3.5c4.6,0,8.1-0.9,10.6-2.8     C105.5,120.4,106.7,117.9,106.7,114.7"/>
			<rect x="206.1" y="52.4" class="st1" width="17" height="84.8"/>
			<polygon class="st1" points="253.4,124.1 291,124.1 291,137.2 236.4,137.2 236.4,52.4 253.4,52.4    "/>
			<polygon class="st1" points="317.7,124.1 355.4,124.1 355.4,137.1 300.8,137.1 300.8,52.4 317.7,52.4    "/>
			<path class="st1" d="M409.4,114.7c0-3.3-1.2-5.9-3.5-7.8c-2.3-2-6.3-3.8-12.1-5.6c-10.1-2.9-17.7-6.4-22.8-10.3     c-5.2-4-7.7-9.5-7.7-16.4s3-12.6,8.9-17s13.5-6.6,22.6-6.6c9.3,0,16.9,2.5,22.7,7.4c5.8,4.9,8.7,11,8.5,18.3l-0.1,0.3h-16.4     c0-3.9-1.3-7.1-3.9-9.5s-6.3-3.6-11-3.6c-4.5,0-8,1-10.5,3s-3.7,4.6-3.7,7.7c0,2.9,1.3,5.2,4,7.1c2.6,1.8,7.2,3.8,13.7,5.8     c9.3,2.6,16.4,6,21.2,10.3c4.8,4.3,7.2,9.9,7.2,16.8c0,7.2-2.9,13-8.6,17.1c-5.7,4.2-13.3,6.3-22.6,6.3c-9.2,0-17.3-2.4-24.1-7.1     c-6.9-4.7-10.2-11.4-10-20l0.1-0.3h16.5c0,5,1.5,8.7,4.6,11.1c3.1,2.3,7.4,3.5,12.9,3.5c4.6,0,8.1-0.9,10.6-2.8     C408.2,120.4,409.4,117.9,409.4,114.7"/>
		</g>
	</g>
</g>
<g>
	<path class="st1" d="M477.1,79.1h-15.8l-3.5,9.9h-5.1L467,51.2h4.3l14.4,37.7h-5.1L477.1,79.1z M462.8,75h12.8l-6.4-17.6L462.8,75z   "/>
	<path class="st1" d="M490.1,88.9V51.2h10.6c3.3,0,6.2,0.7,8.7,2.2c2.5,1.4,4.5,3.5,5.8,6.2c1.4,2.7,2.1,5.7,2.1,9.2v2.4   c0,3.6-0.7,6.7-2.1,9.3c-1.4,2.7-3.3,4.7-5.9,6.2c-2.5,1.4-5.5,2.2-8.9,2.2H490.1z M495.1,55.3v29.6h5.2c3.8,0,6.8-1.2,8.9-3.6   s3.2-5.8,3.2-10.2v-2.2c0-4.3-1-7.6-3-10c-2-2.4-4.9-3.6-8.6-3.6H495.1z"/>
	<path class="st1" d="M529.9,51.2L542.2,82l12.3-30.7h6.4v37.7h-5V74.3l0.5-15.8l-12.4,30.5h-3.8l-12.3-30.4l0.5,15.8v14.7h-5V51.2   H529.9z"/>
	<path class="st1" d="M573.6,88.9h-5V51.2h5V88.9z"/>
	<path class="st1" d="M610.3,88.9h-5l-19-29v29h-5V51.2h5l19,29.2V51.2h4.9V88.9z"/>
	<path class="st1" d="M461.3,123.4v14.8h-5v-37.7h13.9c4.1,0,7.4,1.1,9.7,3.2c2.3,2.1,3.5,4.9,3.5,8.4c0,3.7-1.1,6.5-3.4,8.4   c-2.3,2-5.6,3-9.8,3H461.3z M461.3,119.4h8.9c2.7,0,4.7-0.6,6.1-1.9c1.4-1.3,2.1-3.1,2.1-5.4c0-2.2-0.7-4-2.1-5.4   c-1.4-1.3-3.4-2-5.8-2.1h-9.2V119.4z"/>
	<path class="st1" d="M517.8,120.6c0,3.7-0.6,6.9-1.9,9.7s-3,4.9-5.3,6.3c-2.3,1.4-4.9,2.2-8,2.2c-3,0-5.6-0.7-7.9-2.2   c-2.3-1.5-4.1-3.5-5.3-6.2c-1.3-2.7-1.9-5.8-2-9.4v-2.7c0-3.6,0.6-6.8,1.9-9.6c1.3-2.8,3-4.9,5.3-6.4c2.3-1.5,4.9-2.2,7.9-2.2   c3,0,5.7,0.7,8,2.2c2.3,1.5,4.1,3.6,5.3,6.3c1.2,2.8,1.9,6,1.9,9.7V120.6z M512.8,118.1c0-4.5-0.9-7.9-2.7-10.3s-4.3-3.6-7.5-3.6   c-3.1,0-5.6,1.2-7.4,3.6s-2.7,5.7-2.8,10v2.8c0,4.3,0.9,7.7,2.7,10.2c1.8,2.5,4.3,3.7,7.5,3.7c3.2,0,5.7-1.2,7.5-3.5   s2.7-5.7,2.7-10.1V118.1z"/>
	<path class="st1" d="M537.8,123h-8.9v15.2h-5v-37.7h12.5c4.2,0,7.5,1,9.8,2.9c2.3,1.9,3.4,4.7,3.4,8.4c0,2.3-0.6,4.4-1.9,6.1   c-1.3,1.7-3,3-5.3,3.9l8.8,16v0.3H546L537.8,123z M528.9,118.9h7.6c2.5,0,4.4-0.6,5.9-1.9c1.5-1.3,2.2-3,2.2-5.1   c0-2.3-0.7-4.1-2.1-5.4c-1.4-1.2-3.4-1.9-6-1.9h-7.6V118.9z"/>
	<path class="st1" d="M581.6,104.6h-12.1v33.6h-4.9v-33.6h-12.1v-4.1h29.1V104.6z"/>
	<path class="st1" d="M602.5,128.3h-15.8l-3.5,9.9H578l14.4-37.7h4.3l14.4,37.7h-5.1L602.5,128.3z M588.2,124.3H601l-6.4-17.6   L588.2,124.3z"/>
	<path class="st1" d="M620.5,134.1h17.9v4.1h-22.9v-37.7h5V134.1z"/>
</g>
</svg>